<?xml version="1.0" encoding="UTF-8"?>
<!DOCTYPE score-partwise PUBLIC "-//Recordare//DTD MusicXML 3.1 Partwise//EN" "http://www.musicxml.org/dtds/partwise.dtd">
<score-partwise version="3.1">
  <identification>
    <creator type="composer">Composer</creator>
    <encoding>
      <software>MuseScore 3.6.2</software>
      <supports element="accidental" type="yes" />
      <supports element="beam" type="yes" />
      <supports element="print" attribute="new-page" type="no" />
      <supports element="print" attribute="new-system" type="no" />
      <supports element="stem" type="yes" />
      </encoding>
    </identification>
  <part-list>
    <score-part id="P1">
      <part-name>Piano</part-name>
      <part-abbreviation>Pno.</part-abbreviation>
      <score-instrument id="P1-I1">
        <instrument-name>Piano</instrument-name>
        </score-instrument>
      </score-part>
    </part-list>
  <part id="P1">
    <measure number="1">
      <attributes>
        <divisions>2</divisions>
        <key>
          <fifths>0</fifths>
          </key>
        <time>
          <beats>4</beats>
          <beat-type>4</beat-type>
          </time>
        <clef>
          <sign>G</sign>
          <line>2</line>
          </clef>
        </attributes>
      <harmony print-frame="no">
        <root>
          <root-step>A</root-step>
          </root>
        <kind text="m">minor</kind>
        </harmony>
      <note dynamics="106.67">
        <pitch>
          <step>A</step>
          <octave>4</octave>
          </pitch>
        <duration>1</duration>
        <type>eighth</type>
        <beam number="1">begin</beam>
        </note>
      <note dynamics="106.67">
        <pitch>
          <step>B</step>
          <octave>4</octave>
          </pitch>
        <duration>1</duration>
        <type>eighth</type>
        <beam number="1">continue</beam>
        </note>
      <note dynamics="106.67">
        <pitch>
          <step>A</step>
          <octave>4</octave>
          </pitch>
        <duration>1</duration>
        <type>eighth</type>
        <beam number="1">end</beam>
        </note>
      <note>
        <rest />
        <duration>1</duration>
        <type>eighth</type>
        </note>
      <note>
        <rest />
        <duration>2</duration>
        <type>quarter</type>
        </note>
      <note dynamics="106.67">
        <pitch>
          <step>B</step>
          <octave>4</octave>
          </pitch>
        <duration>2</duration>
        <type>quarter</type>
        </note>
      </measure>
    <measure number="2">
      <note dynamics="106.67">
        <pitch>
          <step>A</step>
          <octave>4</octave>
          </pitch>
        <duration>1</duration>
        <type>eighth</type>
        <beam number="1">begin</beam>
        </note>
      <note dynamics="106.67">
        <pitch>
          <step>B</step>
          <octave>4</octave>
          </pitch>
        <duration>1</duration>
        <type>eighth</type>
        <beam number="1">continue</beam>
        </note>
      <note dynamics="106.67">
        <pitch>
          <step>A</step>
          <octave>4</octave>
          </pitch>
        <duration>1</duration>
        <type>eighth</type>
        <beam number="1">end</beam>
        </note>
      <note>
        <rest />
        <duration>1</duration>
        <type>eighth</type>
        </note>
      <note>
        <rest />
        <duration>2</duration>
        <type>quarter</type>
        </note>
      <note dynamics="106.67">
        <pitch>
          <step>C</step>
          <octave>5</octave>
          </pitch>
        <duration>2</duration>
        <type>quarter</type>
        </note>
      </measure>
    <measure number="3">
      <harmony print-frame="no">
        <root>
          <root-step>D</root-step>
          </root>
        <kind text="m">minor</kind>
        </harmony>
      <note dynamics="106.67">
        <pitch>
          <step>B</step>
          <octave>4</octave>
          </pitch>
        <duration>1</duration>
        <type>eighth</type>
        <beam number="1">begin</beam>
        </note>
      <note dynamics="106.67">
        <pitch>
          <step>C</step>
          <octave>5</octave>
          </pitch>
        <duration>1</duration>
        <type>eighth</type>
        <beam number="1">continue</beam>
        </note>
      <note dynamics="106.67">
        <pitch>
          <step>B</step>
          <octave>4</octave>
          </pitch>
        <duration>1</duration>
        <type>eighth</type>
        <beam number="1">end</beam>
        </note>
      <note>
        <rest />
        <duration>1</duration>
        <type>eighth</type>
        </note>
      <note>
        <rest />
        <duration>2</duration>
        <type>quarter</type>
        </note>
      <note dynamics="106.67">
        <pitch>
          <step>D</step>
          <octave>5</octave>
          </pitch>
        <duration>2</duration>
        <type>quarter</type>
        </note>
      </measure>
    <measure number="4">
      <note dynamics="106.67">
        <pitch>
          <step>C</step>
          <octave>5</octave>
          </pitch>
        <duration>1</duration>
        <type>eighth</type>
        <beam number="1">begin</beam>
        </note>
      <note dynamics="106.67">
        <pitch>
          <step>D</step>
          <octave>5</octave>
          </pitch>
        <duration>1</duration>
        <type>eighth</type>
        <beam number="1">continue</beam>
        </note>
      <note dynamics="106.67">
        <pitch>
          <step>C</step>
          <octave>5</octave>
          </pitch>
        <duration>1</duration>
        <type>eighth</type>
        <beam number="1">end</beam>
        </note>
      <note>
        <rest />
        <duration>1</duration>
        <type>eighth</type>
        </note>
      <note>
        <rest />
        <duration>2</duration>
        <type>quarter</type>
        </note>
      <note dynamics="106.67">
        <pitch>
          <step>D</step>
          <octave>5</octave>
          </pitch>
        <duration>2</duration>
        <type>quarter</type>
        </note>
      </measure>
    <measure number="5">
      <harmony print-frame="no">
        <root>
          <root-step>E</root-step>
          </root>
        <kind>major</kind>
        </harmony>
      <note dynamics="106.67">
        <pitch>
          <step>C</step>
          <octave>5</octave>
          </pitch>
        <duration>1</duration>
        <type>eighth</type>
        <beam number="1">begin</beam>
        </note>
      <note dynamics="106.67">
        <pitch>
          <step>D</step>
          <octave>5</octave>
          </pitch>
        <duration>1</duration>
        <type>eighth</type>
        <beam number="1">continue</beam>
        </note>
      <note dynamics="106.67">
        <pitch>
          <step>C</step>
          <octave>5</octave>
          </pitch>
        <duration>1</duration>
        <type>eighth</type>
        <beam number="1">end</beam>
        </note>
      <note>
        <rest />
        <duration>1</duration>
        <type>eighth</type>
        </note>
      <note>
        <rest />
        <duration>2</duration>
        <type>quarter</type>
        </note>
      <note dynamics="106.67">
        <pitch>
          <step>D</step>
          <octave>5</octave>
          </pitch>
        <duration>2</duration>
        <type>quarter</type>
        </note>
      </measure>
    <measure number="6">
      <note dynamics="106.67">
        <pitch>
          <step>C</step>
          <octave>5</octave>
          </pitch>
        <duration>1</duration>
        <type>eighth</type>
        <beam number="1">begin</beam>
        </note>
      <note dynamics="106.67">
        <pitch>
          <step>D</step>
          <octave>5</octave>
          </pitch>
        <duration>1</duration>
        <type>eighth</type>
        <beam number="1">continue</beam>
        </note>
      <note dynamics="106.67">
        <pitch>
          <step>C</step>
          <octave>5</octave>
          </pitch>
        <duration>1</duration>
        <type>eighth</type>
        <beam number="1">continue</beam>
        </note>
      <note dynamics="106.67">
        <pitch>
          <step>B</step>
          <octave>4</octave>
          </pitch>
        <duration>1</duration>
        <type>eighth</type>
        <beam number="1">end</beam>
        </note>
      <note dynamics="106.67">
        <pitch>
          <step>A</step>
          <octave>4</octave>
          </pitch>
        <duration>1</duration>
        <type>eighth</type>
        </note>
      <note>
        <rest />
        <duration>1</duration>
        <type>eighth</type>
        </note>
      <note dynamics="106.67">
        <pitch>
          <step>G</step>
          <alter>1</alter>
          <octave>4</octave>
          </pitch>
        <duration>2</duration>
        <type>quarter</type>
        <accidental>sharp</accidental>
        </note>
      </measure>
    <measure number="7">
      <harmony print-frame="no">
        <root>
          <root-step>A</root-step>
          </root>
        <kind text="m">minor</kind>
        </harmony>
      <note dynamics="106.67">
        <pitch>
          <step>A</step>
          <octave>4</octave>
          </pitch>
        <duration>1</duration>
        <type>eighth</type>
        <beam number="1">begin</beam>
        </note>
      <note dynamics="106.67">
        <pitch>
          <step>B</step>
          <octave>4</octave>
          </pitch>
        <duration>1</duration>
        <type>eighth</type>
        <beam number="1">continue</beam>
        </note>
      <note dynamics="106.67">
        <pitch>
          <step>A</step>
          <octave>4</octave>
          </pitch>
        <duration>1</duration>
        <type>eighth</type>
        <beam number="1">end</beam>
        </note>
      <note>
        <rest />
        <duration>1</duration>
        <type>eighth</type>
        </note>
      <note>
        <rest />
        <duration>2</duration>
        <type>quarter</type>
        </note>
      <note dynamics="106.67">
        <pitch>
          <step>C</step>
          <octave>5</octave>
          </pitch>
        <duration>2</duration>
        <type>quarter</type>
        </note>
      </measure>
    <measure number="8">
      <harmony print-frame="no">
        <root>
          <root-step>E</root-step>
          </root>
        <kind>major</kind>
        </harmony>
      <note dynamics="106.67">
        <pitch>
          <step>B</step>
          <octave>4</octave>
          </pitch>
        <duration>1</duration>
        <type>eighth</type>
        <beam number="1">begin</beam>
        </note>
      <note dynamics="106.67">
        <pitch>
          <step>C</step>
          <octave>5</octave>
          </pitch>
        <duration>1</duration>
        <type>eighth</type>
        <beam number="1">continue</beam>
        </note>
      <note dynamics="106.67">
        <pitch>
          <step>B</step>
          <octave>4</octave>
          </pitch>
        <duration>1</duration>
        <type>eighth</type>
        <beam number="1">continue</beam>
        </note>
      <note dynamics="106.67">
        <pitch>
          <step>A</step>
          <octave>4</octave>
          </pitch>
        <duration>1</duration>
        <type>eighth</type>
        <beam number="1">end</beam>
        </note>
      <note dynamics="106.67">
        <pitch>
          <step>G</step>
          <alter>1</alter>
          <octave>4</octave>
          </pitch>
        <duration>1</duration>
        <type>eighth</type>
        <accidental>sharp</accidental>
        </note>
      <note>
        <rest />
        <duration>1</duration>
        <type>eighth</type>
        </note>
      <note>
        <pitch>
          <step>E</step>
          <octave>4</octave>
          </pitch>
        <duration>2</duration>
        <type>quarter</type>
        </note>
      </measure>
    <measure number="9">
      <harmony print-frame="no">
        <root>
          <root-step>A</root-step>
          </root>
        <kind text="m">minor</kind>
        </harmony>
      <note dynamics="106.67">
        <pitch>
          <step>A</step>
          <octave>4</octave>
          </pitch>
        <duration>1</duration>
        <type>eighth</type>
        <beam number="1">begin</beam>
        </note>
      <note dynamics="106.67">
        <pitch>
          <step>B</step>
          <octave>4</octave>
          </pitch>
        <duration>1</duration>
        <type>eighth</type>
        <beam number="1">continue</beam>
        </note>
      <note dynamics="106.67">
        <pitch>
          <step>A</step>
          <octave>4</octave>
          </pitch>
        <duration>1</duration>
        <type>eighth</type>
        <beam number="1">end</beam>
        </note>
      <note>
        <rest />
        <duration>1</duration>
        <type>eighth</type>
        </note>
      <note>
        <rest />
        <duration>2</duration>
        <type>quarter</type>
        </note>
      <note dynamics="106.67">
        <pitch>
          <step>B</step>
          <octave>4</octave>
          </pitch>
        <duration>2</duration>
        <type>quarter</type>
        </note>
      </measure>
    <measure number="10">
      <note dynamics="106.67">
        <pitch>
          <step>A</step>
          <octave>4</octave>
          </pitch>
        <duration>1</duration>
        <type>eighth</type>
        <beam number="1">begin</beam>
        </note>
      <note dynamics="106.67">
        <pitch>
          <step>B</step>
          <octave>4</octave>
          </pitch>
        <duration>1</duration>
        <type>eighth</type>
        <beam number="1">continue</beam>
        </note>
      <note dynamics="106.67">
        <pitch>
          <step>A</step>
          <octave>4</octave>
          </pitch>
        <duration>1</duration>
        <type>eighth</type>
        <beam number="1">end</beam>
        </note>
      <note>
        <rest />
        <duration>1</duration>
        <type>eighth</type>
        </note>
      <note>
        <rest />
        <duration>2</duration>
        <type>quarter</type>
        </note>
      <note dynamics="106.67">
        <pitch>
          <step>C</step>
          <octave>5</octave>
          </pitch>
        <duration>2</duration>
        <type>quarter</type>
        </note>
      </measure>
    <measure number="11">
      <harmony print-frame="no">
        <root>
          <root-step>D</root-step>
          </root>
        <kind text="m">minor</kind>
        </harmony>
      <note dynamics="106.67">
        <pitch>
          <step>B</step>
          <octave>4</octave>
          </pitch>
        <duration>1</duration>
        <type>eighth</type>
        <beam number="1">begin</beam>
        </note>
      <note dynamics="106.67">
        <pitch>
          <step>C</step>
          <octave>5</octave>
          </pitch>
        <duration>1</duration>
        <type>eighth</type>
        <beam number="1">continue</beam>
        </note>
      <note dynamics="106.67">
        <pitch>
          <step>B</step>
          <octave>4</octave>
          </pitch>
        <duration>1</duration>
        <type>eighth</type>
        <beam number="1">end</beam>
        </note>
      <note>
        <rest />
        <duration>1</duration>
        <type>eighth</type>
        </note>
      <note>
        <rest />
        <duration>2</duration>
        <type>quarter</type>
        </note>
      <note dynamics="106.67">
        <pitch>
          <step>D</step>
          <octave>5</octave>
          </pitch>
        <duration>2</duration>
        <type>quarter</type>
        </note>
      </measure>
    <measure number="12">
      <note dynamics="106.67">
        <pitch>
          <step>C</step>
          <octave>5</octave>
          </pitch>
        <duration>1</duration>
        <type>eighth</type>
        <beam number="1">begin</beam>
        </note>
      <note dynamics="106.67">
        <pitch>
          <step>D</step>
          <octave>5</octave>
          </pitch>
        <duration>1</duration>
        <type>eighth</type>
        <beam number="1">continue</beam>
        </note>
      <note dynamics="106.67">
        <pitch>
          <step>C</step>
          <octave>5</octave>
          </pitch>
        <duration>1</duration>
        <type>eighth</type>
        <beam number="1">end</beam>
        </note>
      <note>
        <rest />
        <duration>1</duration>
        <type>eighth</type>
        </note>
      <note>
        <rest />
        <duration>2</duration>
        <type>quarter</type>
        </note>
      <note dynamics="106.67">
        <pitch>
          <step>D</step>
          <octave>5</octave>
          </pitch>
        <duration>2</duration>
        <type>quarter</type>
        </note>
      </measure>
    <measure number="13">
      <harmony print-frame="no">
        <root>
          <root-step>E</root-step>
          </root>
        <kind>major</kind>
        </harmony>
      <note dynamics="106.67">
        <pitch>
          <step>C</step>
          <octave>5</octave>
          </pitch>
        <duration>1</duration>
        <type>eighth</type>
        <beam number="1">begin</beam>
        </note>
      <note dynamics="106.67">
        <pitch>
          <step>D</step>
          <octave>5</octave>
          </pitch>
        <duration>1</duration>
        <type>eighth</type>
        <beam number="1">continue</beam>
        </note>
      <note dynamics="106.67">
        <pitch>
          <step>C</step>
          <octave>5</octave>
          </pitch>
        <duration>1</duration>
        <type>eighth</type>
        <beam number="1">end</beam>
        </note>
      <note>
        <rest />
        <duration>1</duration>
        <type>eighth</type>
        </note>
      <note>
        <rest />
        <duration>2</duration>
        <type>quarter</type>
        </note>
      <note dynamics="106.67">
        <pitch>
          <step>D</step>
          <octave>5</octave>
          </pitch>
        <duration>2</duration>
        <type>quarter</type>
        </note>
      </measure>
    <measure number="14">
      <note dynamics="106.67">
        <pitch>
          <step>C</step>
          <octave>5</octave>
          </pitch>
        <duration>1</duration>
        <type>eighth</type>
        <beam number="1">begin</beam>
        </note>
      <note dynamics="106.67">
        <pitch>
          <step>D</step>
          <octave>5</octave>
          </pitch>
        <duration>1</duration>
        <type>eighth</type>
        <beam number="1">continue</beam>
        </note>
      <note dynamics="106.67">
        <pitch>
          <step>C</step>
          <octave>5</octave>
          </pitch>
        <duration>1</duration>
        <type>eighth</type>
        <beam number="1">continue</beam>
        </note>
      <note dynamics="106.67">
        <pitch>
          <step>B</step>
          <octave>4</octave>
          </pitch>
        <duration>1</duration>
        <type>eighth</type>
        <beam number="1">end</beam>
        </note>
      <note dynamics="106.67">
        <pitch>
          <step>A</step>
          <octave>4</octave>
          </pitch>
        <duration>1</duration>
        <type>eighth</type>
        </note>
      <note>
        <rest />
        <duration>1</duration>
        <type>eighth</type>
        </note>
      <note dynamics="106.67">
        <pitch>
          <step>G</step>
          <alter>1</alter>
          <octave>4</octave>
          </pitch>
        <duration>2</duration>
        <type>quarter</type>
        <accidental>sharp</accidental>
        </note>
      </measure>
    <measure number="15">
      <harmony print-frame="no">
        <root>
          <root-step>A</root-step>
          </root>
        <kind text="m">minor</kind>
        </harmony>
      <note dynamics="106.67">
        <pitch>
          <step>A</step>
          <octave>4</octave>
          </pitch>
        <duration>1</duration>
        <type>eighth</type>
        </note>
      <note>
        <rest />
        <duration>1</duration>
        <type>eighth</type>
        </note>
      <note>
        <rest />
        <duration>2</duration>
        <type>quarter</type>
        </note>
      <note>
        <rest />
        <duration>2</duration>
        <type>quarter</type>
        </note>
      <note dynamics="106.67">
        <pitch>
          <step>C</step>
          <octave>5</octave>
          </pitch>
        <duration>2</duration>
        <type>quarter</type>
        </note>
      </measure>
    <measure number="16">
      <harmony print-frame="no">
        <root>
          <root-step>E</root-step>
          </root>
        <kind>major</kind>
        </harmony>
      <note dynamics="106.67">
        <pitch>
          <step>B</step>
          <octave>4</octave>
          </pitch>
        <duration>1</duration>
        <type>eighth</type>
        </note>
      <note>
        <rest />
        <duration>1</duration>
        <type>eighth</type>
        </note>
      <note>
        <rest />
        <duration>2</duration>
        <type>quarter</type>
        </note>
      <note>
        <rest />
        <duration>2</duration>
        <type>quarter</type>
        </note>
      <note dynamics="106.67">
        <pitch>
          <step>C</step>
          <octave>5</octave>
          </pitch>
        <duration>1</duration>
        <type>eighth</type>
        <beam number="1">begin</beam>
        </note>
      <note dynamics="106.67">
        <pitch>
          <step>B</step>
          <octave>4</octave>
          </pitch>
        <duration>1</duration>
        <type>eighth</type>
        <beam number="1">end</beam>
        </note>
      <barline location="right">
        <bar-style>light-light</bar-style>
        </barline>
      </measure>
    <measure number="17">
      <harmony print-frame="no">
        <root>
          <root-step>A</root-step>
          </root>
        <kind text="m">minor</kind>
        </harmony>
      <note dynamics="106.67">
        <pitch>
          <step>A</step>
          <octave>4</octave>
          </pitch>
        <duration>1</duration>
        <type>eighth</type>
        <beam number="1">begin</beam>
        </note>
      <note dynamics="106.67">
        <pitch>
          <step>E</step>
          <octave>4</octave>
          </pitch>
        <duration>1</duration>
        <type>eighth</type>
        <beam number="1">continue</beam>
        </note>
      <note dynamics="106.67">
        <pitch>
          <step>C</step>
          <octave>5</octave>
          </pitch>
        <duration>1</duration>
        <type>eighth</type>
        <beam number="1">continue</beam>
        </note>
      <note dynamics="106.67">
        <pitch>
          <step>B</step>
          <octave>4</octave>
          </pitch>
        <duration>1</duration>
        <type>eighth</type>
        <beam number="1">end</beam>
        </note>
      <note dynamics="106.67">
        <pitch>
          <step>A</step>
          <octave>4</octave>
          </pitch>
        <duration>1</duration>
        <type>eighth</type>
        <beam number="1">begin</beam>
        </note>
      <note dynamics="106.67">
        <pitch>
          <step>E</step>
          <octave>4</octave>
          </pitch>
        <duration>1</duration>
        <type>eighth</type>
        <beam number="1">continue</beam>
        </note>
      <note dynamics="106.67">
        <pitch>
          <step>C</step>
          <octave>5</octave>
          </pitch>
        <duration>1</duration>
        <type>eighth</type>
        <beam number="1">continue</beam>
        </note>
      <note dynamics="106.67">
        <pitch>
          <step>B</step>
          <octave>4</octave>
          </pitch>
        <duration>1</duration>
        <type>eighth</type>
        <beam number="1">end</beam>
        </note>
      </measure>
    <measure number="18">
      <note dynamics="106.67">
        <pitch>
          <step>A</step>
          <octave>4</octave>
          </pitch>
        <duration>1</duration>
        <type>eighth</type>
        <beam number="1">begin</beam>
        </note>
      <note dynamics="106.67">
        <pitch>
          <step>E</step>
          <octave>4</octave>
          </pitch>
        <duration>1</duration>
        <type>eighth</type>
        <beam number="1">end</beam>
        </note>
      <note>
        <rest />
        <duration>2</duration>
        <type>quarter</type>
        </note>
      <note>
        <rest />
        <duration>2</duration>
        <type>quarter</type>
        </note>
      <note dynamics="106.67">
        <pitch>
          <step>C</step>
          <octave>5</octave>
          </pitch>
        <duration>1</duration>
        <type>eighth</type>
        <beam number="1">begin</beam>
        </note>
      <note dynamics="106.67">
        <pitch>
          <step>B</step>
          <octave>4</octave>
          </pitch>
        <duration>1</duration>
        <type>eighth</type>
        <beam number="1">end</beam>
        </note>
      </measure>
    <measure number="19">
      <note dynamics="106.67">
        <pitch>
          <step>A</step>
          <octave>4</octave>
          </pitch>
        <duration>1</duration>
        <type>eighth</type>
        <beam number="1">begin</beam>
        </note>
      <note dynamics="106.67">
        <pitch>
          <step>E</step>
          <octave>4</octave>
          </pitch>
        <duration>1</duration>
        <type>eighth</type>
        <beam number="1">continue</beam>
        </note>
      <note dynamics="106.67">
        <pitch>
          <step>E</step>
          <octave>4</octave>
          </pitch>
        <duration>1</duration>
        <type>eighth</type>
        <beam number="1">continue</beam>
        </note>
      <note dynamics="106.67">
        <pitch>
          <step>E</step>
          <octave>4</octave>
          </pitch>
        <duration>1</duration>
        <type>eighth</type>
        <beam number="1">end</beam>
        </note>
      <note dynamics="106.67">
        <pitch>
          <step>G</step>
          <octave>4</octave>
          </pitch>
        <duration>1</duration>
        <type>eighth</type>
        <beam number="1">begin</beam>
        </note>
      <note dynamics="106.67">
        <pitch>
          <step>G</step>
          <octave>4</octave>
          </pitch>
        <duration>1</duration>
        <type>eighth</type>
        <beam number="1">continue</beam>
        </note>
      <note dynamics="106.67">
        <pitch>
          <step>G</step>
          <octave>4</octave>
          </pitch>
        <duration>1</duration>
        <type>eighth</type>
        <beam number="1">continue</beam>
        </note>
      <note dynamics="106.67">
        <pitch>
          <step>F</step>
          <alter>1</alter>
          <octave>4</octave>
          </pitch>
        <duration>1</duration>
        <type>eighth</type>
        <accidental>sharp</accidental>
        <beam number="1">end</beam>
        </note>
      </measure>
    <measure number="20">
      <harmony print-frame="no">
        <root>
          <root-step>D</root-step>
          </root>
        <kind text="m">minor</kind>
        </harmony>
      <note dynamics="106.67">
        <pitch>
          <step>F</step>
          <octave>4</octave>
          </pitch>
        <duration>4</duration>
        <type>half</type>
        </note>
      <note>
        <rest />
        <duration>2</duration>
        <type>quarter</type>
        </note>
      <note dynamics="106.67">
        <pitch>
          <step>D</step>
          <octave>5</octave>
          </pitch>
        <duration>1</duration>
        <type>eighth</type>
        <beam number="1">begin</beam>
        </note>
      <note dynamics="106.67">
        <pitch>
          <step>C</step>
          <octave>5</octave>
          </pitch>
        <duration>1</duration>
        <type>eighth</type>
        <beam number="1">end</beam>
        </note>
      </measure>
    <measure number="21">
      <note dynamics="106.67">
        <pitch>
          <step>B</step>
          <octave>4</octave>
          </pitch>
        <duration>1</duration>
        <type>eighth</type>
        <beam number="1">begin</beam>
        </note>
      <note dynamics="106.67">
        <pitch>
          <step>F</step>
          <octave>4</octave>
          </pitch>
        <duration>1</duration>
        <type>eighth</type>
        <beam number="1">continue</beam>
        </note>
      <note dynamics="106.67">
        <pitch>
          <step>D</step>
          <octave>5</octave>
          </pitch>
        <duration>1</duration>
        <type>eighth</type>
        <beam number="1">continue</beam>
        </note>
      <note dynamics="106.67">
        <pitch>
          <step>C</step>
          <octave>5</octave>
          </pitch>
        <duration>1</duration>
        <type>eighth</type>
        <beam number="1">end</beam>
        </note>
      <note dynamics="106.67">
        <pitch>
          <step>B</step>
          <octave>4</octave>
          </pitch>
        <duration>1</duration>
        <type>eighth</type>
        <beam number="1">begin</beam>
        </note>
      <note dynamics="106.67">
        <pitch>
          <step>F</step>
          <octave>4</octave>
          </pitch>
        <duration>1</duration>
        <type>eighth</type>
        <beam number="1">continue</beam>
        </note>
      <note dynamics="106.67">
        <pitch>
          <step>D</step>
          <octave>5</octave>
          </pitch>
        <duration>1</duration>
        <type>eighth</type>
        <beam number="1">continue</beam>
        </note>
      <note dynamics="106.67">
        <pitch>
          <step>C</step>
          <octave>5</octave>
          </pitch>
        <duration>1</duration>
        <type>eighth</type>
        <beam number="1">end</beam>
        </note>
      </measure>
    <measure number="22">
      <note dynamics="106.67">
        <pitch>
          <step>B</step>
          <octave>4</octave>
          </pitch>
        <duration>1</duration>
        <type>eighth</type>
        <beam number="1">begin</beam>
        </note>
      <note dynamics="106.67">
        <pitch>
          <step>F</step>
          <octave>4</octave>
          </pitch>
        <duration>1</duration>
        <type>eighth</type>
        <beam number="1">end</beam>
        </note>
      <note>
        <rest />
        <duration>2</duration>
        <type>quarter</type>
        </note>
      <note>
        <rest />
        <duration>2</duration>
        <type>quarter</type>
        </note>
      <note dynamics="106.67">
        <pitch>
          <step>D</step>
          <octave>5</octave>
          </pitch>
        <duration>1</duration>
        <type>eighth</type>
        <beam number="1">begin</beam>
        </note>
      <note dynamics="106.67">
        <pitch>
          <step>C</step>
          <octave>5</octave>
          </pitch>
        <duration>1</duration>
        <type>eighth</type>
        <beam number="1">end</beam>
        </note>
      </measure>
    <measure number="23">
      <harmony print-frame="no">
        <root>
          <root-step>E</root-step>
          </root>
        <kind>major</kind>
        </harmony>
      <note dynamics="106.67">
        <pitch>
          <step>B</step>
          <octave>4</octave>
          </pitch>
        <duration>1</duration>
        <type>eighth</type>
        <beam number="1">begin</beam>
        </note>
      <note dynamics="106.67">
        <pitch>
          <step>B</step>
          <octave>4</octave>
          </pitch>
        <duration>1</duration>
        <type>eighth</type>
        <beam number="1">continue</beam>
        </note>
      <note dynamics="106.67">
        <pitch>
          <step>C</step>
          <octave>5</octave>
          </pitch>
        <duration>1</duration>
        <type>eighth</type>
        <beam number="1">continue</beam>
        </note>
      <note dynamics="106.67">
        <pitch>
          <step>D</step>
          <octave>5</octave>
          </pitch>
        <duration>1</duration>
        <type>eighth</type>
        <beam number="1">end</beam>
        </note>
      <note dynamics="106.67">
        <pitch>
          <step>E</step>
          <octave>5</octave>
          </pitch>
        <duration>1</duration>
        <type>eighth</type>
        <beam number="1">begin</beam>
        </note>
      <note dynamics="106.67">
        <pitch>
          <step>D</step>
          <octave>5</octave>
          </pitch>
        <duration>1</duration>
        <type>eighth</type>
        <beam number="1">continue</beam>
        </note>
      <note dynamics="106.67">
        <pitch>
          <step>C</step>
          <octave>5</octave>
          </pitch>
        <duration>1</duration>
        <type>eighth</type>
        <beam number="1">continue</beam>
        </note>
      <note dynamics="106.67">
        <pitch>
          <step>B</step>
          <octave>4</octave>
          </pitch>
        <duration>1</duration>
        <type>eighth</type>
        <beam number="1">end</beam>
        </note>
      </measure>
    <measure number="24">
      <harmony print-frame="no">
        <root>
          <root-step>A</root-step>
          </root>
        <kind text="m">minor</kind>
        </harmony>
      <note dynamics="106.67">
        <pitch>
          <step>A</step>
          <octave>4</octave>
          </pitch>
        <duration>4</duration>
        <type>half</type>
        </note>
      <note>
        <rest />
        <duration>1</duration>
        <type>eighth</type>
        </note>
      <note dynamics="106.67">
        <pitch>
          <step>C</step>
          <octave>5</octave>
          </pitch>
        <duration>2</duration>
        <type>quarter</type>
        </note>
      <note dynamics="106.67">
        <pitch>
          <step>B</step>
          <octave>4</octave>
          </pitch>
        <duration>1</duration>
        <type>eighth</type>
        </note>
      </measure>
    <measure number="25">
      <harmony print-frame="no">
        <root>
          <root-step>A</root-step>
          </root>
        <kind text="m">minor</kind>
        </harmony>
      <note dynamics="106.67">
        <pitch>
          <step>A</step>
          <octave>4</octave>
          </pitch>
        <duration>1</duration>
        <type>eighth</type>
        <beam number="1">begin</beam>
        </note>
      <note dynamics="106.67">
        <pitch>
          <step>E</step>
          <octave>4</octave>
          </pitch>
        <duration>1</duration>
        <type>eighth</type>
        <beam number="1">continue</beam>
        </note>
      <note dynamics="106.67">
        <pitch>
          <step>C</step>
          <octave>5</octave>
          </pitch>
        <duration>1</duration>
        <type>eighth</type>
        <beam number="1">continue</beam>
        </note>
      <note dynamics="106.67">
        <pitch>
          <step>B</step>
          <octave>4</octave>
          </pitch>
        <duration>1</duration>
        <type>eighth</type>
        <beam number="1">end</beam>
        </note>
      <note dynamics="106.67">
        <pitch>
          <step>A</step>
          <octave>4</octave>
          </pitch>
        <duration>1</duration>
        <type>eighth</type>
        <beam number="1">begin</beam>
        </note>
      <note dynamics="106.67">
        <pitch>
          <step>E</step>
          <octave>4</octave>
          </pitch>
        <duration>1</duration>
        <type>eighth</type>
        <beam number="1">continue</beam>
        </note>
      <note dynamics="106.67">
        <pitch>
          <step>C</step>
          <octave>5</octave>
          </pitch>
        <duration>1</duration>
        <type>eighth</type>
        <beam number="1">continue</beam>
        </note>
      <note dynamics="106.67">
        <pitch>
          <step>B</step>
          <octave>4</octave>
          </pitch>
        <duration>1</duration>
        <type>eighth</type>
        <beam number="1">end</beam>
        </note>
      </measure>
    <measure number="26">
      <note dynamics="106.67">
        <pitch>
          <step>A</step>
          <octave>4</octave>
          </pitch>
        <duration>1</duration>
        <type>eighth</type>
        <beam number="1">begin</beam>
        </note>
      <note dynamics="106.67">
        <pitch>
          <step>E</step>
          <octave>4</octave>
          </pitch>
        <duration>1</duration>
        <type>eighth</type>
        <beam number="1">end</beam>
        </note>
      <note>
        <rest />
        <duration>2</duration>
        <type>quarter</type>
        </note>
      <note>
        <rest />
        <duration>2</duration>
        <type>quarter</type>
        </note>
      <note dynamics="106.67">
        <pitch>
          <step>C</step>
          <octave>5</octave>
          </pitch>
        <duration>1</duration>
        <type>eighth</type>
        <beam number="1">begin</beam>
        </note>
      <note dynamics="106.67">
        <pitch>
          <step>B</step>
          <octave>4</octave>
          </pitch>
        <duration>1</duration>
        <type>eighth</type>
        <beam number="1">end</beam>
        </note>
      </measure>
    <measure number="27">
      <note dynamics="106.67">
        <pitch>
          <step>A</step>
          <octave>4</octave>
          </pitch>
        <duration>1</duration>
        <type>eighth</type>
        <beam number="1">begin</beam>
        </note>
      <note dynamics="106.67">
        <pitch>
          <step>E</step>
          <octave>4</octave>
          </pitch>
        <duration>1</duration>
        <type>eighth</type>
        <beam number="1">continue</beam>
        </note>
      <note dynamics="106.67">
        <pitch>
          <step>E</step>
          <octave>4</octave>
          </pitch>
        <duration>1</duration>
        <type>eighth</type>
        <beam number="1">continue</beam>
        </note>
      <note dynamics="106.67">
        <pitch>
          <step>E</step>
          <octave>4</octave>
          </pitch>
        <duration>1</duration>
        <type>eighth</type>
        <beam number="1">end</beam>
        </note>
      <note dynamics="106.67">
        <pitch>
          <step>G</step>
          <octave>4</octave>
          </pitch>
        <duration>1</duration>
        <type>eighth</type>
        <beam number="1">begin</beam>
        </note>
      <note dynamics="106.67">
        <pitch>
          <step>G</step>
          <octave>4</octave>
          </pitch>
        <duration>1</duration>
        <type>eighth</type>
        <beam number="1">continue</beam>
        </note>
      <note dynamics="106.67">
        <pitch>
          <step>G</step>
          <octave>4</octave>
          </pitch>
        <duration>1</duration>
        <type>eighth</type>
        <beam number="1">continue</beam>
        </note>
      <note dynamics="106.67">
        <pitch>
          <step>F</step>
          <alter>1</alter>
          <octave>4</octave>
          </pitch>
        <duration>1</duration>
        <type>eighth</type>
        <accidental>sharp</accidental>
        <beam number="1">end</beam>
        </note>
      </measure>
    <measure number="28">
      <harmony print-frame="no">
        <root>
          <root-step>D</root-step>
          </root>
        <kind text="m">minor</kind>
        </harmony>
      <note dynamics="106.67">
        <pitch>
          <step>F</step>
          <octave>4</octave>
          </pitch>
        <duration>4</duration>
        <type>half</type>
        </note>
      <note>
        <rest />
        <duration>2</duration>
        <type>quarter</type>
        </note>
      <note dynamics="106.67">
        <pitch>
          <step>D</step>
          <octave>5</octave>
          </pitch>
        <duration>1</duration>
        <type>eighth</type>
        <beam number="1">begin</beam>
        </note>
      <note dynamics="106.67">
        <pitch>
          <step>C</step>
          <octave>5</octave>
          </pitch>
        <duration>1</duration>
        <type>eighth</type>
        <beam number="1">end</beam>
        </note>
      </measure>
    <measure number="29">
      <note dynamics="106.67">
        <pitch>
          <step>B</step>
          <octave>4</octave>
          </pitch>
        <duration>1</duration>
        <type>eighth</type>
        <beam number="1">begin</beam>
        </note>
      <note dynamics="106.67">
        <pitch>
          <step>F</step>
          <octave>4</octave>
          </pitch>
        <duration>1</duration>
        <type>eighth</type>
        <beam number="1">continue</beam>
        </note>
      <note dynamics="106.67">
        <pitch>
          <step>D</step>
          <octave>5</octave>
          </pitch>
        <duration>1</duration>
        <type>eighth</type>
        <beam number="1">continue</beam>
        </note>
      <note dynamics="106.67">
        <pitch>
          <step>C</step>
          <octave>5</octave>
          </pitch>
        <duration>1</duration>
        <type>eighth</type>
        <beam number="1">end</beam>
        </note>
      <note dynamics="106.67">
        <pitch>
          <step>B</step>
          <octave>4</octave>
          </pitch>
        <duration>1</duration>
        <type>eighth</type>
        <beam number="1">begin</beam>
        </note>
      <note dynamics="106.67">
        <pitch>
          <step>F</step>
          <octave>4</octave>
          </pitch>
        <duration>1</duration>
        <type>eighth</type>
        <beam number="1">continue</beam>
        </note>
      <note dynamics="106.67">
        <pitch>
          <step>D</step>
          <octave>5</octave>
          </pitch>
        <duration>1</duration>
        <type>eighth</type>
        <beam number="1">continue</beam>
        </note>
      <note dynamics="106.67">
        <pitch>
          <step>C</step>
          <octave>5</octave>
          </pitch>
        <duration>1</duration>
        <type>eighth</type>
        <beam number="1">end</beam>
        </note>
      </measure>
    <measure number="30">
      <note dynamics="106.67">
        <pitch>
          <step>B</step>
          <octave>4</octave>
          </pitch>
        <duration>1</duration>
        <type>eighth</type>
        <beam number="1">begin</beam>
        </note>
      <note dynamics="106.67">
        <pitch>
          <step>F</step>
          <octave>4</octave>
          </pitch>
        <duration>1</duration>
        <type>eighth</type>
        <beam number="1">end</beam>
        </note>
      <note>
        <rest />
        <duration>2</duration>
        <type>quarter</type>
        </note>
      <note>
        <rest />
        <duration>2</duration>
        <type>quarter</type>
        </note>
      <note dynamics="106.67">
        <pitch>
          <step>D</step>
          <octave>5</octave>
          </pitch>
        <duration>1</duration>
        <type>eighth</type>
        <beam number="1">begin</beam>
        </note>
      <note dynamics="106.67">
        <pitch>
          <step>C</step>
          <octave>5</octave>
          </pitch>
        <duration>1</duration>
        <type>eighth</type>
        <beam number="1">end</beam>
        </note>
      </measure>
    <measure number="31">
      <harmony print-frame="no">
        <root>
          <root-step>E</root-step>
          </root>
        <kind>major</kind>
        </harmony>
      <note dynamics="106.67">
        <pitch>
          <step>B</step>
          <octave>4</octave>
          </pitch>
        <duration>1</duration>
        <type>eighth</type>
        <beam number="1">begin</beam>
        </note>
      <note dynamics="106.67">
        <pitch>
          <step>B</step>
          <octave>4</octave>
          </pitch>
        <duration>1</duration>
        <type>eighth</type>
        <beam number="1">continue</beam>
        </note>
      <note dynamics="106.67">
        <pitch>
          <step>C</step>
          <octave>5</octave>
          </pitch>
        <duration>1</duration>
        <type>eighth</type>
        <beam number="1">continue</beam>
        </note>
      <note dynamics="106.67">
        <pitch>
          <step>D</step>
          <octave>5</octave>
          </pitch>
        <duration>1</duration>
        <type>eighth</type>
        <beam number="1">end</beam>
        </note>
      <note dynamics="106.67">
        <pitch>
          <step>E</step>
          <octave>5</octave>
          </pitch>
        <duration>1</duration>
        <type>eighth</type>
        <beam number="1">begin</beam>
        </note>
      <note dynamics="106.67">
        <pitch>
          <step>D</step>
          <octave>5</octave>
          </pitch>
        <duration>1</duration>
        <type>eighth</type>
        <beam number="1">continue</beam>
        </note>
      <note dynamics="106.67">
        <pitch>
          <step>C</step>
          <octave>5</octave>
          </pitch>
        <duration>1</duration>
        <type>eighth</type>
        <beam number="1">continue</beam>
        </note>
      <note dynamics="106.67">
        <pitch>
          <step>B</step>
          <octave>4</octave>
          </pitch>
        <duration>1</duration>
        <type>eighth</type>
        <beam number="1">end</beam>
        </note>
      </measure>
    <measure number="32">
      <harmony print-frame="no">
        <root>
          <root-step>A</root-step>
          </root>
        <kind text="m">minor</kind>
        </harmony>
      <note dynamics="106.67">
        <pitch>
          <step>A</step>
          <octave>4</octave>
          </pitch>
        <duration>4</duration>
        <type>half</type>
        </note>
      <note>
        <rest />
        <duration>2</duration>
        <type>quarter</type>
        </note>
      <note>
        <pitch>
          <step>C</step>
          <alter>1</alter>
          <octave>4</octave>
          </pitch>
        <duration>2</duration>
        <type size="cue">quarter</type>
        <accidental>sharp</accidental>
        </note>
      <barline location="right">
        <bar-style>light-light</bar-style>
        </barline>
      </measure>
    <measure number="33">
      <harmony print-frame="no">
        <root>
          <root-step>D</root-step>
          </root>
        <kind text="m">minor</kind>
        </harmony>
      <note>
        <pitch>
          <step>D</step>
          <octave>4</octave>
          </pitch>
        <duration>2</duration>
        <type size="cue">quarter</type>
        </note>
      <note>
        <pitch>
          <step>E</step>
          <octave>3</octave>
          </pitch>
        <duration>2</duration>
        <type size="cue">quarter</type>
        </note>
      <harmony print-frame="no">
        <root>
          <root-step>A</root-step>
          </root>
        <kind text="m">minor</kind>
        </harmony>
      <note>
        <pitch>
          <step>A</step>
          <octave>3</octave>
          </pitch>
        <duration>2</duration>
        <type size="cue">quarter</type>
        </note>
      <note>
        <pitch>
          <step>C</step>
          <alter>1</alter>
          <octave>4</octave>
          </pitch>
        <duration>2</duration>
        <type size="cue">quarter</type>
        <accidental>sharp</accidental>
        </note>
      </measure>
    <measure number="34">
      <harmony print-frame="no">
        <root>
          <root-step>D</root-step>
          </root>
        <kind text="m">minor</kind>
        </harmony>
      <note>
        <pitch>
          <step>D</step>
          <octave>4</octave>
          </pitch>
        <duration>2</duration>
        <type size="cue">quarter</type>
        </note>
      <note>
        <pitch>
          <step>G</step>
          <octave>3</octave>
          </pitch>
        <duration>2</duration>
        <type size="cue">quarter</type>
        </note>
      <harmony print-frame="no">
        <root>
          <root-step>A</root-step>
          </root>
        <kind text="m">minor</kind>
        </harmony>
      <note>
        <pitch>
          <step>C</step>
          <octave>4</octave>
          </pitch>
        <duration>2</duration>
        <type size="cue">quarter</type>
        </note>
      <note>
        <pitch>
          <step>C</step>
          <alter>1</alter>
          <octave>4</octave>
          </pitch>
        <duration>2</duration>
        <type size="cue">quarter</type>
        <accidental>sharp</accidental>
        </note>
      </measure>
    <measure number="35">
      <harmony print-frame="no">
        <root>
          <root-step>D</root-step>
          </root>
        <kind text="m">minor</kind>
        </harmony>
      <note>
        <pitch>
          <step>D</step>
          <octave>4</octave>
          </pitch>
        <duration>2</duration>
        <type size="cue">quarter</type>
        </note>
      <note>
        <pitch>
          <step>G</step>
          <octave>3</octave>
          </pitch>
        <duration>2</duration>
        <type size="cue">quarter</type>
        </note>
      <harmony print-frame="no">
        <root>
          <root-step>A</root-step>
          </root>
        <kind text="m">minor</kind>
        </harmony>
      <note>
        <pitch>
          <step>C</step>
          <octave>4</octave>
          </pitch>
        <duration>2</duration>
        <type size="cue">quarter</type>
        </note>
      <note>
        <pitch>
          <step>A</step>
          <octave>3</octave>
          </pitch>
        <duration>2</duration>
        <type size="cue">quarter</type>
        </note>
      </measure>
    <measure number="36">
      <harmony print-frame="no">
        <root>
          <root-step>D</root-step>
          </root>
        <kind text="m">minor</kind>
        </harmony>
      <note>
        <pitch>
          <step>D</step>
          <octave>4</octave>
          </pitch>
        <duration>2</duration>
        <type size="cue">quarter</type>
        </note>
      <note>
        <pitch>
          <step>E</step>
          <octave>3</octave>
          </pitch>
        <duration>2</duration>
        <type size="cue">quarter</type>
        </note>
      <harmony print-frame="no">
        <root>
          <root-step>A</root-step>
          </root>
        <kind text="m">minor</kind>
        </harmony>
      <note>
        <pitch>
          <step>A</step>
          <octave>3</octave>
          </pitch>
        <duration>2</duration>
        <type size="cue">quarter</type>
        </note>
      <note>
        <pitch>
          <step>A</step>
          <octave>3</octave>
          </pitch>
        <duration>2</duration>
        <type size="cue">quarter</type>
        </note>
      </measure>
    <measure number="37">
      <harmony print-frame="no">
        <root>
          <root-step>D</root-step>
          </root>
        <kind text="m">minor</kind>
        </harmony>
      <note>
        <pitch>
          <step>D</step>
          <octave>4</octave>
          </pitch>
        <duration>2</duration>
        <type size="cue">quarter</type>
        </note>
      <note>
        <pitch>
          <step>E</step>
          <octave>3</octave>
          </pitch>
        <duration>2</duration>
        <type size="cue">quarter</type>
        </note>
      <harmony print-frame="no">
        <root>
          <root-step>A</root-step>
          </root>
        <kind text="m">minor</kind>
        </harmony>
      <note>
        <pitch>
          <step>A</step>
          <octave>3</octave>
          </pitch>
        <duration>2</duration>
        <type size="cue">quarter</type>
        </note>
      <note>
        <pitch>
          <step>C</step>
          <alter>1</alter>
          <octave>4</octave>
          </pitch>
        <duration>2</duration>
        <type size="cue">quarter</type>
        <accidental>sharp</accidental>
        </note>
      </measure>
    <measure number="38">
      <harmony print-frame="no">
        <root>
          <root-step>D</root-step>
          </root>
        <kind text="m">minor</kind>
        </harmony>
      <note>
        <pitch>
          <step>D</step>
          <octave>4</octave>
          </pitch>
        <duration>2</duration>
        <type size="cue">quarter</type>
        </note>
      <note>
        <pitch>
          <step>G</step>
          <octave>3</octave>
          </pitch>
        <duration>2</duration>
        <type size="cue">quarter</type>
        </note>
      <harmony print-frame="no">
        <root>
          <root-step>A</root-step>
          </root>
        <kind text="m">minor</kind>
        </harmony>
      <note>
        <pitch>
          <step>C</step>
          <octave>4</octave>
          </pitch>
        <duration>2</duration>
        <type size="cue">quarter</type>
        </note>
      <note>
        <pitch>
          <step>C</step>
          <alter>1</alter>
          <octave>4</octave>
          </pitch>
        <duration>2</duration>
        <type size="cue">quarter</type>
        <accidental>sharp</accidental>
        </note>
      </measure>
    <measure number="39">
      <harmony print-frame="no">
        <root>
          <root-step>D</root-step>
          </root>
        <kind text="m">minor</kind>
        </harmony>
      <note>
        <pitch>
          <step>D</step>
          <octave>4</octave>
          </pitch>
        <duration>2</duration>
        <type size="cue">quarter</type>
        </note>
      <note>
        <pitch>
          <step>G</step>
          <octave>3</octave>
          </pitch>
        <duration>2</duration>
        <type size="cue">quarter</type>
        </note>
      <harmony print-frame="no">
        <root>
          <root-step>A</root-step>
          </root>
        <kind text="m">minor</kind>
        </harmony>
      <note>
        <pitch>
          <step>C</step>
          <octave>4</octave>
          </pitch>
        <duration>2</duration>
        <type size="cue">quarter</type>
        </note>
      <note>
        <pitch>
          <step>A</step>
          <octave>3</octave>
          </pitch>
        <duration>2</duration>
        <type size="cue">quarter</type>
        </note>
      </measure>
    <measure number="40">
      <harmony print-frame="no">
        <root>
          <root-step>D</root-step>
          </root>
        <kind text="m">minor</kind>
        </harmony>
      <note>
        <pitch>
          <step>D</step>
          <octave>4</octave>
          </pitch>
        <duration>2</duration>
        <type size="cue">quarter</type>
        </note>
      <note>
        <pitch>
          <step>E</step>
          <octave>3</octave>
          </pitch>
        <duration>2</duration>
        <type size="cue">quarter</type>
        </note>
      <harmony print-frame="no">
        <root>
          <root-step>A</root-step>
          </root>
        <kind text="m">minor</kind>
        </harmony>
      <note>
        <pitch>
          <step>A</step>
          <octave>3</octave>
          </pitch>
        <duration>2</duration>
        <type size="cue">quarter</type>
        </note>
      <note>
        <pitch>
          <step>A</step>
          <octave>3</octave>
          </pitch>
        <duration>2</duration>
        <type size="cue">quarter</type>
        </note>
      </measure>
    <measure number="41">
      <harmony print-frame="no">
        <root>
          <root-step>A</root-step>
          </root>
        <kind text="m">minor</kind>
        </harmony>
      <note>
        <pitch>
          <step>A</step>
          <octave>4</octave>
          </pitch>
        <duration>1</duration>
        <type>eighth</type>
        </note>
      <note>
        <rest />
        <duration>1</duration>
        <type>eighth</type>
        </note>
      <note>
        <rest />
        <duration>2</duration>
        <type>quarter</type>
        </note>
      <note>
        <rest />
        <duration>4</duration>
        <type>half</type>
        </note>
      </measure>
    <measure number="42">
      <note>
        <rest />
        <duration>4</duration>
        <type>half</type>
        </note>
      <note>
        <rest />
        <duration>2</duration>
        <type>quarter</type>
        </note>
      <note>
        <pitch>
          <step>A</step>
          <octave>4</octave>
          </pitch>
        <duration>1</duration>
        <type>eighth</type>
        </note>
      <note>
        <rest />
        <duration>1</duration>
        <type>eighth</type>
        </note>
      </measure>
    <measure number="43">
      <harmony print-frame="no">
        <root>
          <root-step>D</root-step>
          </root>
        <kind text="m">minor</kind>
        </harmony>
      <note>
        <pitch>
          <step>D</step>
          <octave>5</octave>
          </pitch>
        <duration>1</duration>
        <type>eighth</type>
        </note>
      <note>
        <rest />
        <duration>1</duration>
        <type>eighth</type>
        </note>
      <note>
        <rest />
        <duration>2</duration>
        <type>quarter</type>
        </note>
      <note>
        <rest />
        <duration>4</duration>
        <type>half</type>
        </note>
      </measure>
    <measure number="44">
      <note>
        <rest />
        <duration>4</duration>
        <type>half</type>
        </note>
      <note>
        <rest />
        <duration>2</duration>
        <type>quarter</type>
        </note>
      <note>
        <pitch>
          <step>D</step>
          <octave>5</octave>
          </pitch>
        <duration>1</duration>
        <type>eighth</type>
        </note>
      <note>
        <rest />
        <duration>1</duration>
        <type>eighth</type>
        </note>
      </measure>
    <measure number="45">
      <harmony print-frame="no">
        <root>
          <root-step>E</root-step>
          </root>
        <kind>major</kind>
        </harmony>
      <note>
        <pitch>
          <step>E</step>
          <octave>4</octave>
          </pitch>
        <duration>1</duration>
        <type>eighth</type>
        </note>
      <note>
        <rest />
        <duration>1</duration>
        <type>eighth</type>
        </note>
      <note>
        <rest />
        <duration>2</duration>
        <type>quarter</type>
        </note>
      <note>
        <rest />
        <duration>4</duration>
        <type>half</type>
        </note>
      </measure>
    <measure number="46">
      <note>
        <rest />
        <duration>4</duration>
        <type>half</type>
        </note>
      <note>
        <rest />
        <duration>2</duration>
        <type>quarter</type>
        </note>
      <note>
        <pitch>
          <step>E</step>
          <octave>4</octave>
          </pitch>
        <duration>1</duration>
        <type>eighth</type>
        </note>
      <note>
        <rest />
        <duration>1</duration>
        <type>eighth</type>
        </note>
      </measure>
    <measure number="47">
      <harmony print-frame="no">
        <root>
          <root-step>A</root-step>
          </root>
        <kind text="m">minor</kind>
        </harmony>
      <note>
        <pitch>
          <step>A</step>
          <octave>4</octave>
          </pitch>
        <duration>1</duration>
        <type>eighth</type>
        </note>
      <note>
        <rest />
        <duration>1</duration>
        <type>eighth</type>
        </note>
      <note>
        <rest />
        <duration>2</duration>
        <type>quarter</type>
        </note>
      <note>
        <rest />
        <duration>2</duration>
        <type>quarter</type>
        </note>
      <note>
        <pitch>
          <step>A</step>
          <octave>4</octave>
          </pitch>
        <duration>1</duration>
        <type>eighth</type>
        </note>
      <note>
        <rest />
        <duration>1</duration>
        <type>eighth</type>
        </note>
      </measure>
    <measure number="48">
      <harmony print-frame="no">
        <root>
          <root-step>E</root-step>
          </root>
        <kind>major</kind>
        </harmony>
      <note>
        <pitch>
          <step>E</step>
          <octave>4</octave>
          </pitch>
        <duration>1</duration>
        <type>eighth</type>
        </note>
      <note>
        <rest />
        <duration>1</duration>
        <type>eighth</type>
        </note>
      <note>
        <rest />
        <duration>2</duration>
        <type>quarter</type>
        </note>
      <note>
        <rest />
        <duration>2</duration>
        <type>quarter</type>
        </note>
      <note dynamics="88.89">
        <pitch>
          <step>C</step>
          <octave>5</octave>
          </pitch>
        <duration>1</duration>
        <type>eighth</type>
        <beam number="1">begin</beam>
        </note>
      <note dynamics="88.89">
        <pitch>
          <step>B</step>
          <octave>4</octave>
          </pitch>
        <duration>1</duration>
        <type>eighth</type>
        <beam number="1">end</beam>
        </note>
      <barline location="right">
        <bar-style>light-light</bar-style>
        </barline>
      </measure>
    <measure number="49">
      <harmony print-frame="no">
        <root>
          <root-step>A</root-step>
          </root>
        <kind text="m">minor</kind>
        </harmony>
      <note dynamics="88.89">
        <pitch>
          <step>A</step>
          <octave>4</octave>
          </pitch>
        <duration>1</duration>
        <type>eighth</type>
        <beam number="1">begin</beam>
        </note>
      <note dynamics="88.89">
        <pitch>
          <step>E</step>
          <octave>4</octave>
          </pitch>
        <duration>1</duration>
        <type>eighth</type>
        <beam number="1">continue</beam>
        </note>
      <note dynamics="88.89">
        <pitch>
          <step>C</step>
          <octave>5</octave>
          </pitch>
        <duration>1</duration>
        <type>eighth</type>
        <beam number="1">continue</beam>
        </note>
      <note dynamics="88.89">
        <pitch>
          <step>B</step>
          <octave>4</octave>
          </pitch>
        <duration>1</duration>
        <type>eighth</type>
        <beam number="1">end</beam>
        </note>
      <note dynamics="88.89">
        <pitch>
          <step>A</step>
          <octave>4</octave>
          </pitch>
        <duration>1</duration>
        <type>eighth</type>
        <beam number="1">begin</beam>
        </note>
      <note dynamics="88.89">
        <pitch>
          <step>E</step>
          <octave>4</octave>
          </pitch>
        <duration>1</duration>
        <type>eighth</type>
        <beam number="1">continue</beam>
        </note>
      <note dynamics="88.89">
        <pitch>
          <step>C</step>
          <octave>5</octave>
          </pitch>
        <duration>1</duration>
        <type>eighth</type>
        <beam number="1">continue</beam>
        </note>
      <note dynamics="88.89">
        <pitch>
          <step>B</step>
          <octave>4</octave>
          </pitch>
        <duration>1</duration>
        <type>eighth</type>
        <beam number="1">end</beam>
        </note>
      </measure>
    <measure number="50">
      <note dynamics="88.89">
        <pitch>
          <step>A</step>
          <octave>4</octave>
          </pitch>
        <duration>1</duration>
        <type>eighth</type>
        <beam number="1">begin</beam>
        </note>
      <note dynamics="88.89">
        <pitch>
          <step>E</step>
          <octave>4</octave>
          </pitch>
        <duration>1</duration>
        <type>eighth</type>
        <beam number="1">end</beam>
        </note>
      <note>
        <rest />
        <duration>2</duration>
        <type>quarter</type>
        </note>
      <note>
        <rest />
        <duration>2</duration>
        <type>quarter</type>
        </note>
      <note dynamics="88.89">
        <pitch>
          <step>C</step>
          <octave>5</octave>
          </pitch>
        <duration>1</duration>
        <type>eighth</type>
        <beam number="1">begin</beam>
        </note>
      <note dynamics="88.89">
        <pitch>
          <step>B</step>
          <octave>4</octave>
          </pitch>
        <duration>1</duration>
        <type>eighth</type>
        <beam number="1">end</beam>
        </note>
      </measure>
    <measure number="51">
      <note dynamics="88.89">
        <pitch>
          <step>A</step>
          <octave>4</octave>
          </pitch>
        <duration>1</duration>
        <type>eighth</type>
        <beam number="1">begin</beam>
        </note>
      <note dynamics="88.89">
        <pitch>
          <step>A</step>
          <octave>4</octave>
          </pitch>
        <duration>1</duration>
        <type>eighth</type>
        <beam number="1">continue</beam>
        </note>
      <note dynamics="88.89">
        <pitch>
          <step>B</step>
          <octave>4</octave>
          </pitch>
        <duration>1</duration>
        <type>eighth</type>
        <beam number="1">continue</beam>
        </note>
      <note dynamics="88.89">
        <pitch>
          <step>C</step>
          <octave>5</octave>
          </pitch>
        <duration>1</duration>
        <type>eighth</type>
        <beam number="1">end</beam>
        </note>
      <note dynamics="88.89">
        <pitch>
          <step>C</step>
          <alter>1</alter>
          <octave>5</octave>
          </pitch>
        <duration>1</duration>
        <type>eighth</type>
        <accidental>sharp</accidental>
        <beam number="1">begin</beam>
        </note>
      <note dynamics="88.89">
        <pitch>
          <step>C</step>
          <alter>1</alter>
          <octave>5</octave>
          </pitch>
        <duration>1</duration>
        <type>eighth</type>
        <beam number="1">continue</beam>
        </note>
      <note dynamics="88.89">
        <pitch>
          <step>D</step>
          <octave>5</octave>
          </pitch>
        <duration>1</duration>
        <type>eighth</type>
        <beam number="1">continue</beam>
        </note>
      <note dynamics="88.89">
        <pitch>
          <step>E</step>
          <octave>5</octave>
          </pitch>
        <duration>1</duration>
        <type>eighth</type>
        <beam number="1">end</beam>
        </note>
      </measure>
    <measure number="52">
      <harmony print-frame="no">
        <root>
          <root-step>D</root-step>
          </root>
        <kind text="m">minor</kind>
        </harmony>
      <note dynamics="88.89">
        <pitch>
          <step>D</step>
          <octave>5</octave>
          </pitch>
        <duration>4</duration>
        <type>half</type>
        </note>
      <note>
        <rest />
        <duration>2</duration>
        <type>quarter</type>
        </note>
      <note dynamics="88.89">
        <pitch>
          <step>F</step>
          <octave>5</octave>
          </pitch>
        <duration>1</duration>
        <type>eighth</type>
        <beam number="1">begin</beam>
        </note>
      <note dynamics="88.89">
        <pitch>
          <step>E</step>
          <octave>5</octave>
          </pitch>
        <duration>1</duration>
        <type>eighth</type>
        <beam number="1">end</beam>
        </note>
      </measure>
    <measure number="53">
      <note dynamics="88.89">
        <pitch>
          <step>D</step>
          <octave>5</octave>
          </pitch>
        <duration>1</duration>
        <type>eighth</type>
        <beam number="1">begin</beam>
        </note>
      <note dynamics="88.89">
        <pitch>
          <step>B</step>
          <octave>4</octave>
          </pitch>
        <duration>1</duration>
        <type>eighth</type>
        <beam number="1">continue</beam>
        </note>
      <note dynamics="88.89">
        <pitch>
          <step>C</step>
          <octave>5</octave>
          </pitch>
        <duration>1</duration>
        <type>eighth</type>
        <beam number="1">continue</beam>
        </note>
      <note dynamics="88.89">
        <pitch>
          <step>D</step>
          <octave>5</octave>
          </pitch>
        <duration>1</duration>
        <type>eighth</type>
        <beam number="1">end</beam>
        </note>
      <note dynamics="88.89">
        <pitch>
          <step>E</step>
          <octave>5</octave>
          </pitch>
        <duration>1</duration>
        <type>eighth</type>
        <beam number="1">begin</beam>
        </note>
      <note dynamics="88.89">
        <pitch>
          <step>E</step>
          <octave>5</octave>
          </pitch>
        <duration>1</duration>
        <type>eighth</type>
        <beam number="1">continue</beam>
        </note>
      <note dynamics="88.89">
        <pitch>
          <step>D</step>
          <octave>5</octave>
          </pitch>
        <duration>1</duration>
        <type>eighth</type>
        <beam number="1">continue</beam>
        </note>
      <note dynamics="88.89">
        <pitch>
          <step>E</step>
          <octave>5</octave>
          </pitch>
        <duration>1</duration>
        <type>eighth</type>
        <beam number="1">end</beam>
        </note>
      </measure>
    <measure number="54">
      <harmony print-frame="no">
        <root>
          <root-step>A</root-step>
          </root>
        <kind text="m">minor</kind>
        </harmony>
      <note dynamics="88.89">
        <pitch>
          <step>C</step>
          <octave>5</octave>
          </pitch>
        <duration>1</duration>
        <type>eighth</type>
        <beam number="1">begin</beam>
        </note>
      <note dynamics="88.89">
        <pitch>
          <step>A</step>
          <octave>4</octave>
          </pitch>
        <duration>1</duration>
        <type>eighth</type>
        <beam number="1">end</beam>
        </note>
      <note>
        <rest />
        <duration>2</duration>
        <type>quarter</type>
        </note>
      <note>
        <rest />
        <duration>1</duration>
        <type>eighth</type>
        </note>
      <note dynamics="88.89">
        <pitch>
          <step>A</step>
          <octave>4</octave>
          </pitch>
        <duration>1</duration>
        <type>eighth</type>
        <beam number="1">begin</beam>
        </note>
      <note dynamics="88.89">
        <pitch>
          <step>B</step>
          <octave>4</octave>
          </pitch>
        <duration>1</duration>
        <type>eighth</type>
        <beam number="1">continue</beam>
        </note>
      <note dynamics="88.89">
        <pitch>
          <step>C</step>
          <octave>5</octave>
          </pitch>
        <duration>1</duration>
        <type>eighth</type>
        <beam number="1">end</beam>
        </note>
      </measure>
    <measure number="55">
      <harmony print-frame="no">
        <root>
          <root-step>G</root-step>
          </root>
        <kind>major</kind>
        </harmony>
      <note dynamics="88.89">
        <pitch>
          <step>D</step>
          <octave>5</octave>
          </pitch>
        <duration>1</duration>
        <type>eighth</type>
        <beam number="1">begin</beam>
        </note>
      <note dynamics="88.89">
        <pitch>
          <step>C</step>
          <octave>5</octave>
          </pitch>
        <duration>1</duration>
        <type>eighth</type>
        <beam number="1">continue</beam>
        </note>
      <note dynamics="88.89">
        <pitch>
          <step>B</step>
          <octave>4</octave>
          </pitch>
        <duration>1</duration>
        <type>eighth</type>
        <beam number="1">continue</beam>
        </note>
      <note dynamics="88.89">
        <pitch>
          <step>A</step>
          <octave>4</octave>
          </pitch>
        <duration>1</duration>
        <type>eighth</type>
        <beam number="1">end</beam>
        </note>
      <harmony print-frame="no">
        <root>
          <root-step>E</root-step>
          </root>
        <kind>major</kind>
        </harmony>
      <note dynamics="88.89">
        <pitch>
          <step>C</step>
          <octave>5</octave>
          </pitch>
        <duration>1</duration>
        <type>eighth</type>
        <beam number="1">begin</beam>
        </note>
      <note dynamics="88.89">
        <pitch>
          <step>B</step>
          <octave>4</octave>
          </pitch>
        <duration>1</duration>
        <type>eighth</type>
        <beam number="1">continue</beam>
        </note>
      <note dynamics="88.89">
        <pitch>
          <step>A</step>
          <octave>4</octave>
          </pitch>
        <duration>1</duration>
        <type>eighth</type>
        <beam number="1">continue</beam>
        </note>
      <note dynamics="88.89">
        <pitch>
          <step>G</step>
          <alter>1</alter>
          <octave>4</octave>
          </pitch>
        <duration>1</duration>
        <type>eighth</type>
        <accidental>sharp</accidental>
        <beam number="1">end</beam>
        </note>
      </measure>
    <measure number="56">
      <harmony print-frame="no">
        <root>
          <root-step>A</root-step>
          </root>
        <kind text="m">minor</kind>
        </harmony>
      <note dynamics="88.89">
        <pitch>
          <step>A</step>
          <octave>4</octave>
          </pitch>
        <duration>4</duration>
        <type>half</type>
        </note>
      <note>
        <rest />
        <duration>1</duration>
        <type>eighth</type>
        </note>
      <note dynamics="88.89">
        <pitch>
          <step>F</step>
          <octave>5</octave>
          </pitch>
        <duration>2</duration>
        <type>quarter</type>
        </note>
      <note dynamics="88.89">
        <pitch>
          <step>E</step>
          <octave>5</octave>
          </pitch>
        <duration>1</duration>
        <type>eighth</type>
        </note>
      </measure>
    <measure number="57">
      <harmony print-frame="no">
        <root>
          <root-step>D</root-step>
          </root>
        <kind text="m">minor</kind>
        </harmony>
      <note dynamics="88.89">
        <pitch>
          <step>D</step>
          <octave>5</octave>
          </pitch>
        <duration>1</duration>
        <type>eighth</type>
        <beam number="1">begin</beam>
        </note>
      <note dynamics="88.89">
        <pitch>
          <step>B</step>
          <octave>4</octave>
          </pitch>
        <duration>1</duration>
        <type>eighth</type>
        <beam number="1">continue</beam>
        </note>
      <note dynamics="88.89">
        <pitch>
          <step>C</step>
          <octave>5</octave>
          </pitch>
        <duration>1</duration>
        <type>eighth</type>
        <beam number="1">continue</beam>
        </note>
      <note dynamics="88.89">
        <pitch>
          <step>D</step>
          <octave>5</octave>
          </pitch>
        <duration>1</duration>
        <type>eighth</type>
        <beam number="1">end</beam>
        </note>
      <harmony print-frame="no">
        <root>
          <root-step>G</root-step>
          </root>
        <kind>major</kind>
        </harmony>
      <note dynamics="88.89">
        <pitch>
          <step>E</step>
          <octave>5</octave>
          </pitch>
        <duration>1</duration>
        <type>eighth</type>
        <beam number="1">begin</beam>
        </note>
      <note dynamics="88.89">
        <pitch>
          <step>E</step>
          <octave>5</octave>
          </pitch>
        <duration>1</duration>
        <type>eighth</type>
        <beam number="1">continue</beam>
        </note>
      <note dynamics="88.89">
        <pitch>
          <step>D</step>
          <octave>5</octave>
          </pitch>
        <duration>1</duration>
        <type>eighth</type>
        <beam number="1">continue</beam>
        </note>
      <note dynamics="88.89">
        <pitch>
          <step>E</step>
          <octave>5</octave>
          </pitch>
        <duration>1</duration>
        <type>eighth</type>
        <beam number="1">end</beam>
        </note>
      </measure>
    <measure number="58">
      <harmony print-frame="no">
        <root>
          <root-step>A</root-step>
          </root>
        <kind text="m">minor</kind>
        </harmony>
      <note dynamics="88.89">
        <pitch>
          <step>C</step>
          <octave>5</octave>
          </pitch>
        <duration>1</duration>
        <type>eighth</type>
        <beam number="1">begin</beam>
        </note>
      <note dynamics="88.89">
        <pitch>
          <step>A</step>
          <octave>4</octave>
          </pitch>
        <duration>1</duration>
        <type>eighth</type>
        <beam number="1">end</beam>
        </note>
      <note>
        <rest />
        <duration>2</duration>
        <type>quarter</type>
        </note>
      <note>
        <rest />
        <duration>1</duration>
        <type>eighth</type>
        </note>
      <note dynamics="88.89">
        <pitch>
          <step>A</step>
          <octave>4</octave>
          </pitch>
        <duration>1</duration>
        <type>eighth</type>
        <beam number="1">begin</beam>
        </note>
      <note dynamics="88.89">
        <pitch>
          <step>B</step>
          <octave>4</octave>
          </pitch>
        <duration>1</duration>
        <type>eighth</type>
        <beam number="1">continue</beam>
        </note>
      <note dynamics="88.89">
        <pitch>
          <step>C</step>
          <octave>5</octave>
          </pitch>
        <duration>1</duration>
        <type>eighth</type>
        <beam number="1">end</beam>
        </note>
      </measure>
    <measure number="59">
      <harmony print-frame="no">
        <root>
          <root-step>G</root-step>
          </root>
        <kind>major</kind>
        </harmony>
      <note dynamics="88.89">
        <pitch>
          <step>D</step>
          <octave>5</octave>
          </pitch>
        <duration>1</duration>
        <type>eighth</type>
        <beam number="1">begin</beam>
        </note>
      <note dynamics="88.89">
        <pitch>
          <step>C</step>
          <octave>5</octave>
          </pitch>
        <duration>1</duration>
        <type>eighth</type>
        <beam number="1">continue</beam>
        </note>
      <note dynamics="88.89">
        <pitch>
          <step>B</step>
          <octave>4</octave>
          </pitch>
        <duration>1</duration>
        <type>eighth</type>
        <beam number="1">continue</beam>
        </note>
      <note dynamics="88.89">
        <pitch>
          <step>A</step>
          <octave>4</octave>
          </pitch>
        <duration>1</duration>
        <type>eighth</type>
        <beam number="1">end</beam>
        </note>
      <harmony print-frame="no">
        <root>
          <root-step>E</root-step>
          </root>
        <kind>major</kind>
        </harmony>
      <note dynamics="88.89">
        <pitch>
          <step>C</step>
          <octave>5</octave>
          </pitch>
        <duration>1</duration>
        <type>eighth</type>
        <beam number="1">begin</beam>
        </note>
      <note dynamics="88.89">
        <pitch>
          <step>B</step>
          <octave>4</octave>
          </pitch>
        <duration>1</duration>
        <type>eighth</type>
        <beam number="1">continue</beam>
        </note>
      <note dynamics="88.89">
        <pitch>
          <step>A</step>
          <octave>4</octave>
          </pitch>
        <duration>1</duration>
        <type>eighth</type>
        <beam number="1">continue</beam>
        </note>
      <note dynamics="88.89">
        <pitch>
          <step>G</step>
          <alter>1</alter>
          <octave>4</octave>
          </pitch>
        <duration>1</duration>
        <type>eighth</type>
        <accidental>sharp</accidental>
        <beam number="1">end</beam>
        </note>
      </measure>
    <measure number="60">
      <harmony print-frame="no">
        <root>
          <root-step>A</root-step>
          </root>
        <kind text="m">minor</kind>
        </harmony>
      <note dynamics="88.89">
        <pitch>
          <step>A</step>
          <octave>4</octave>
          </pitch>
        <duration>8</duration>
        <type>whole</type>
        </note>
      <barline location="right">
        <bar-style>light-heavy</bar-style>
        </barline>
      </measure>
    </part>
  </score-partwise>